<?xml version="1.0" encoding="utf-8"?>
<!-- Generator: Adobe Illustrator 22.0.0, SVG Export Plug-In . SVG Version: 6.00 Build 0)  -->
<svg version="1.1" id="Слой_1" xmlns="http://www.w3.org/2000/svg" xmlns:xlink="http://www.w3.org/1999/xlink" x="0px" y="0px"
	 viewBox="0 0 286 259" style="enable-background:new 0 0 286 259;" xml:space="preserve">
<style type="text/css">
	.st0{fill:#9E6C36;stroke:#FFFFFF;stroke-miterlimit:10;}
	.st1{fill:#9E6C36;}
	.st2{fill:none;}
</style>
<g>
	<path class="st0" d="M248.8,175.8c-2.7-8-5-15.2-7.5-22.4c-13.3-38.8-26.8-77.6-40-116.4c-1.7-5.2-4-7.1-9.7-7.1
		c-34.1,0.1-68.2-0.2-102.3-0.7c-5.2-0.1-7.5,1.6-9.2,6.5C64.4,80.9,48.5,126,32.6,171.2c-0.4,1.2-0.8,2.5-1.1,3.8
		c0.7,0.3,1.2,0.8,1.5,0.7c8-1.7,11.3,2.8,13.5,9.4c1.4,4.2,3.6,8.1,5.9,13.1c-4.3,0-8,0.5-11.4-0.2c-1.6-0.4-3.3-3-3.9-5
		c-1.5-4.4-4.1-5.9-8.6-5.5c-4.4,0.4-8.9,0.1-14.2,0.1c2.8-8.1,5.3-15.5,7.9-22.8c16.6-47.3,33.4-94.6,49.9-142c1.3-3.8,3-5.1,7-5
		c14.5,0.3,29,0.3,43.5,0c5.4-0.1,9.7,1,12.9,5.5c1.1,1.6,2.6,3,4,4.6c1.2-0.9,1.9-1.3,2.4-1.9c5.3-7.5,12.8-8.6,21.4-8.1
		c12.8,0.6,25.6,0.4,38.5,0.2c3.9-0.1,5.8,1,7.2,4.9c17.1,50.3,34.5,100.6,51.7,150.9c1.5,4.3,3,8.7,4.7,13.9
		c-5.8,0-10.8-0.2-15.7,0.1c-1.8,0.1-4.2,1.4-5,2.8c-4.9,8.7-4.8,8.8-16,7.2c2.9-6.8,5.6-13.6,8.6-20.1c0.4-0.9,2.4-1.5,3.7-1.7
		C243.3,175.6,245.6,175.8,248.8,175.8z"/>
	<path class="st0" d="M139.7,168c8.6,10.2,16.6,19.7,24.8,29.4c-11.1,3.3-18.7-0.4-23.9-11c-5,6.2-9.3,11.6-13.6,16.9
		c-3.1,3.9-5.9,8.1-9.4,11.7c-1.6,1.7-4.4,3-6.6,3.1c-14.5,0.3-29,0.1-43.5,0.1c-1.8,0-3.6,0-6.6,0c2.3,5.2,4.1,9.7,6.3,14
		c0.4,0.8,2.3,1,3.6,1c45.6,0.1,91.3,0.1,136.9,0.5c5.7,0,8.7-1.6,9.9-7.1c0.6-2.5,1.8-4.9,3.1-8.3c-2.7,0-4.6,0-6.5,0
		c-20.8,0-41.7-0.4-62.5,0.2c-8.3,0.3-14-2.5-18.8-9.4c2.2-2.5,4.6-5.2,7.5-8.4c5.2,7.8,13.1,6,20.4,6c27.3,0,54.7-0.1,82,0.1
		c4.6,0,6.9-1.5,8.6-5.6c2.3-5.8,9-8.4,14.8-6c0.9,0.4,1.8,1.5,2.2,2.5c1.1,2.7,2,5.6,3,8.6c-0.8,0.3-1.5,0.9-2,0.8
		c-6.2-1.2-9.7,1.6-11.2,7.5c-0.7,2.9-2.5,3.8-5.5,3.7c-8.3-0.2-16.7,0.1-25-0.1c-3-0.1-5,0.9-5.5,3.8c-2.1,12.3-9.3,16.8-21.3,14.2
		c-4.9-1.1-6,2.5-6.9,5.9c-1,3.9-3,5.2-7,5.1c-31-0.2-62-0.2-93,0c-4,0-6.4-1.2-7.5-4.9c-1.6-5.1-4.9-7.2-10.1-6.2
		c-8.2,1.6-13.4-1.5-15.2-9.8c-1.5-7-5.9-8.8-12.7-8.2c-6.9,0.6-14,0.2-21,0.1c-1.4,0-3.9-0.8-4.1-1.7c-2.1-7.9-6.8-11.3-16.2-8.6
		c1.7-4.5,2.8-7.8,4.3-10.8c0.4-0.9,2.1-1.4,3.3-1.5c2.1-0.3,4.4,0.2,6.5-0.1c4.7-0.7,7.3,1.3,8.3,5.7c1,4.5,3.8,5.7,8.4,5.6
		c22.3-0.4,44.6-0.5,67-0.4c3.4,0,5.5-1.1,7.5-3.7C121.3,191.2,130.3,179.9,139.7,168z M192.3,236.4c-35.1,0-69.8,0-104.8,0
		c0.8,5.2,2.9,7.7,8.5,7.6c29.3-0.1,58.7,0.2,88,0.4C190.7,244.5,191.2,244.1,192.3,236.4z"/>
	<path class="st1" d="M139.7,151.8c-8.1,10.4-15.9,20.3-23.7,30.3c-3.2,4.1-6.5,8-9.5,12.2c-2,2.9-4.4,4-8,3.9
		c-10.5-0.2-21-0.2-31.4,0c-3.1,0.1-4.9-0.7-6-3.7c-3.6-9.6-7.7-19.1-11.3-28.7c-0.7-2-0.4-4.6,0.2-6.7
		C62.7,120.7,75.6,82.4,88.3,44c1.3-4.1,3.3-5.6,7.8-5.6c29.8,0.3,59.6,0.3,89.4,0.2c3.5,0,5.2,1,6.4,4.5
		c13,39.1,26.1,78.1,39.1,117.1c0.5,1.6,0.5,3.7-0.1,5.2c-3.9,9.9-8,19.7-11.9,29.6c-1,2.6-2.5,3.4-5.3,3.3c-9.7-0.1-19.3-0.3-29,0
		c-4.1,0.1-6.8-1.2-9.4-4.3c-10.2-12.3-20.5-24.5-30.8-36.7C143.1,155.6,141.5,153.9,139.7,151.8z M139.8,147.2
		c1.5,1.6,2.4,2.4,3.1,3.3c11.5,13.6,23,27.3,34.3,41c2.4,2.9,4.9,4.5,8.9,4.3c8.2-0.3,16.3-0.3,24.5-0.2c3.6,0.1,5.7-1,7.1-4.6
		c3.2-8.4,6.9-16.5,10.1-24.9c0.7-1.8,0.9-4.3,0.2-6.1c-12.7-38.2-25.7-76.4-38.4-114.7c-1.1-3.2-2.5-4.1-5.7-4
		c-29,0.1-58,0.1-86.9-0.1c-3.5,0-5,1.2-6,4.3c-12.7,38.1-25.5,76.2-38.1,114.4c-0.7,2-0.6,4.6,0.1,6.6c3.1,8.4,6.7,16.6,9.9,25
		c1.1,2.8,2.6,3.8,5.5,3.7c10-0.2,20,0.1,30-0.2c2.1-0.1,4.8-1.4,6.2-3c6.1-7.3,11.8-14.9,17.6-22.4
		C127.9,162.1,133.7,154.9,139.8,147.2z"/>
	<path class="st2" d="M192.3,236.4c-1.1,7.7-1.6,8.1-8.3,8c-29.3-0.2-58.7-0.5-88-0.4c-5.6,0-7.7-2.4-8.5-7.6
		C122.4,236.4,157.2,236.4,192.3,236.4z"/>
</g>
</svg>
