<?xml version="1.0" encoding="utf-8"?>
<!-- Generator: Adobe Illustrator 22.0.0, SVG Export Plug-In . SVG Version: 6.00 Build 0)  -->
<svg version="1.1" id="Layer_1" xmlns="http://www.w3.org/2000/svg" xmlns:xlink="http://www.w3.org/1999/xlink" x="0px" y="0px"
	 viewBox="0 0 500 500" enable-background="new 0 0 500 500" xml:space="preserve">
<desc>Created with Fabric.js 1.3.0</desc>
<polygon fill="#F9F7F9" points="0,125 0,159.2 4.3,145.8 "/>
<polygon fill="#D8D6D8" points="0,62.5 0,125 7.6,78.7 "/>
<polygon fill="#DFDDDF" points="7.2,66 0,62.5 7.6,78.7 "/>
<polygon fill="#EAE8EA" points="0,27.8 0,62.5 14.2,49.6 "/>
<polygon fill="#C3C1C3" points="0,472.2 0,500 16.1,490.4 "/>
<polygon fill="#D7D5D7" points="0,62.5 7.2,66 14.2,49.6 "/>
<polygon fill="#C6C4C6" points="7.6,78.7 0,125 20.4,89.6 "/>
<polygon fill="#CFCDCF" points="0,472.2 16.1,490.4 26.6,473.5 "/>
<polygon fill="#CFCDCF" points="16.1,490.4 0,500 27.8,500 "/>
<polygon fill="#D4D2D4" points="0,250 0,375 25.9,287.7 "/>
<polygon fill="#E9E7E9" points="17.6,252.4 0,250 25.9,287.7 "/>
<polygon fill="#D2D0D2" points="0,27.8 14.2,49.6 33,32.7 "/>
<polygon fill="#D1CFD1" points="0,0 0,27.8 27.8,0 "/>
<polygon fill="#F8F6F8" points="25.9,287.7 0,375 34.7,341.5 "/>
<polygon fill="#CDCBCD" points="27.8,0 0,27.8 33,32.7 "/>
<polygon fill="#E0DEE0" points="0,437.5 0,472.2 26.6,473.5 "/>
<polygon fill="#C4C2C4" points="0,437.5 26.6,473.5 31.6,470.5 "/>
<polygon fill="#D2D0D2" points="26.6,473.5 16.1,490.4 27.8,500 "/>
<polygon fill="#E5E3E5" points="7.2,66 7.6,78.7 20.4,89.6 "/>
<polygon fill="#FDFBFD" points="25.9,287.7 34.7,341.5 43.1,317.2 "/>
<polygon fill="#EBE9EB" points="34.7,341.5 0,375 39.7,379.8 "/>
<polygon fill="#E2E0E2" points="34.7,341.5 39.7,379.8 49.5,357 "/>
<polygon fill="#D6D4D6" points="0,375 0,437.5 39.7,379.8 "/>
<polygon fill="#CAC8CA" points="26.6,473.5 27.8,500 31.6,470.5 "/>
<polygon fill="#F6F4F6" points="20.4,89.6 52.5,87.1 57.5,63.6 "/>
<polygon fill="#DFDDDF" points="33,32.7 14.2,49.6 57.5,63.6 "/>
<polygon fill="#E6E4E6" points="14.2,49.6 7.2,66 57.5,63.6 "/>
<polygon fill="#DCDADC" points="7.2,66 20.4,89.6 57.5,63.6 "/>
<polygon fill="#D1CFD1" points="0,159.2 0,250 17.6,252.4 "/>
<polygon fill="#F9F7F9" points="52.5,87.1 20.4,89.6 66.4,99.7 "/>
<polygon fill="#F3F1F3" points="49.5,357 39.7,379.8 66.1,384.1 "/>
<polygon fill="#EAE8EA" points="39.7,379.8 63,389.7 66.1,384.1 "/>
<polygon fill="#CDCBCD" points="31.6,470.5 27.8,500 62.5,500 "/>
<polygon fill="#DDDBDD" points="52,466.5 31.6,470.5 62.5,500 "/>
<polygon fill="#F7F5F7" points="27.8,0 33,32.7 62.5,0 "/>
<polygon fill="#E3E1E3" points="0,437.5 31.6,470.5 52,466.5 "/>
<polygon fill="#E1DFE1" points="66.1,384.1 63,389.7 72.9,394.9 "/>
<polygon fill="#CECCCE" points="52,466.5 62.5,500 71.7,477 "/>
<polygon fill="#DAD8DA" points="20.4,89.6 0,125 66.4,99.7 "/>
<polygon fill="#BEBCBE" points="0,125 4.3,145.8 76.3,135.8 "/>
<polygon fill="#D8D6D8" points="66.4,99.7 0,125 76.3,135.8 "/>
<polygon fill="#E6E4E6" points="39.7,379.8 0,437.5 63,389.7 "/>
<polygon fill="#F1EFF1" points="57.5,63.6 52.5,87.1 62.5,62.5 "/>
<polygon fill="#E7E5E7" points="33,32.7 57.5,63.6 62.5,62.5 "/>
<polygon fill="#E7E5E7" points="43.1,317.2 34.7,341.5 49.5,357 "/>
<polygon fill="#F0EEF0" points="0,437.5 52,466.5 63,389.7 "/>
<polygon fill="#F8F6F8" points="63,389.7 52,466.5 84.4,440.4 "/>
<polygon fill="#EFEDEF" points="72.9,394.9 63,389.7 84.4,440.4 "/>
<polygon fill="#DEDCDE" points="4.3,145.8 0,159.2 82.5,181.5 "/>
<polygon fill="#E3E1E3" points="76.3,135.8 4.3,145.8 82.5,181.5 "/>
<polygon fill="#DBD9DB" points="0,159.2 17.6,252.4 82.5,181.5 "/>
<polygon fill="#CECCCE" points="82.5,181.5 17.6,252.4 88.9,210.9 "/>
<polygon fill="#EAE8EA" points="52,466.5 71.8,477 88.4,464.7 "/>
<polygon fill="#DCDADC" points="84.4,440.4 52,466.5 88.4,464.7 "/>
<polygon fill="#EAE8EA" points="62.5,62.5 52.5,87.1 66.4,99.7 "/>
<polygon fill="#D0CED0" points="66.4,99.7 76.3,135.8 92.3,126 "/>
<polygon fill="#DEDCDE" points="84.4,440.4 88.4,464.7 91.4,448.7 "/>
<polygon fill="#E6E4E6" points="33,32.7 62.5,62.5 62.5,0 "/>
<polygon fill="#F1EFF1" points="25.9,287.7 43.1,317.2 96.1,284.6 "/>
<polygon fill="#C2C0C2" points="62.5,62.5 66.4,99.7 98.8,77 "/>
<polygon fill="#F2F0F2" points="62.5,62.5 98.8,77 99.9,70 "/>
<polygon fill="#C9C7C9" points="66.4,99.7 92.3,126 99.5,121.5 "/>
<polygon fill="#EBE9EB" points="17.6,252.4 25.9,287.7 96.1,284.6 "/>
<polygon fill="#E5E3E5" points="72.9,394.9 84.4,440.4 110,413.6 "/>
<polygon fill="#E6E4E6" points="88.9,210.9 17.6,252.4 96.1,284.6 "/>
<polygon fill="#CCCACC" points="76.3,135.8 82.5,181.5 111.6,152.1 "/>
<polygon fill="#E1DFE1" points="92.3,126 76.3,135.8 111.6,152.1 "/>
<polygon fill="#E0DEE0" points="62.5,0 62.5,62.5 110.2,14.6 "/>
<polygon fill="#CBC9CB" points="98.8,77 66.4,99.7 99.5,121.5 "/>
<polygon fill="#E6E4E6" points="110,413.6 91.4,448.7 118.6,445.3 "/>
<polygon fill="#DCDADC" points="99.5,121.5 92.3,126 111.6,152.1 "/>
<polygon fill="#FEFDFE" points="62.5,62.5 99.9,70 110.2,14.6 "/>
<polygon fill="#EAE8EA" points="84.4,440.4 91.4,448.7 110,413.6 "/>
<polygon fill="#EBE9EB" points="71.8,477 62.5,500 125,500 "/>
<polygon fill="#EEECEE" points="88.4,464.7 71.7,477 125,500 "/>
<polygon fill="#EEECEE" points="91.4,448.7 88.4,464.7 118.6,445.3 "/>
<polygon fill="#D7D5D7" points="62.5,0 110.2,14.6 125,0 "/>
<polygon fill="#E9E7E9" points="43.1,317.2 49.5,357 130.3,331.2 "/>
<polygon fill="#EBE9EB" points="96.1,284.6 43.1,317.2 130.3,331.2 "/>
<polygon fill="#EEECEE" points="125,0 110.2,14.6 130.9,22.4 "/>
<polygon fill="#D8D6D8" points="49.5,357 66.1,384.1 130.3,331.2 "/>
<polygon fill="#F9F7F9" points="110,413.6 118.6,445.3 127.7,414.7 "/>
<polygon fill="#DFDDDF" points="110.2,14.6 99.9,70 130.9,22.4 "/>
<polygon fill="#D2D0D2" points="118.6,445.3 88.4,464.7 125,500 "/>
<polygon fill="#CBC9CB" points="130.9,22.4 99.9,70 146.3,61.6 "/>
<polygon fill="#D0CED0" points="118.6,445.3 125,500 136.8,451.3 "/>
<polygon fill="#E2E0E2" points="66.1,384.1 72.9,394.9 130.3,331.2 "/>
<polygon fill="#D6D4D6" points="99.9,70 98.8,77 146.3,61.6 "/>
<polygon fill="#FDFBFD" points="127.7,414.7 118.6,445.3 136.8,451.3 "/>
<polygon fill="#DFDDDF" points="72.9,394.9 110,413.6 130.3,331.2 "/>
<polygon fill="#ECEAEC" points="96.1,284.6 130.3,331.2 145.8,321.9 "/>
<polygon fill="#E5E3E5" points="111.6,152.1 88.9,210.9 151.3,210.6 "/>
<polygon fill="#E6E4E6" points="82.5,181.5 88.9,210.9 111.6,152.1 "/>
<polygon fill="#F8F6F8" points="127.6,414.7 136.8,451.3 160.8,426.1 "/>
<polygon fill="#F3F1F3" points="96.1,284.6 145.8,321.9 154.6,272.1 "/>
<polygon fill="#E4E2E4" points="99.5,121.5 111.6,152.1 162.7,133.8 "/>
<polygon fill="#EEECEE" points="111.6,152.1 153.7,159.1 162.7,133.8 "/>
<polygon fill="#C8C6C8" points="130.9,22.4 146.3,61.6 161.6,29.6 "/>
<polygon fill="#DCDADC" points="88.9,210.9 96.1,284.6 154.6,272.1 "/>
<polygon fill="#DFDDDF" points="151.3,210.6 88.9,210.9 154.6,272.1 "/>
<polygon fill="#C7C5C7" points="111.6,152.1 151.3,210.6 153.7,159.1 "/>
<polygon fill="#EBE9EB" points="110,413.6 127.6,414.7 130.3,331.2 "/>
<polygon fill="#D5D3D5" points="154.6,272.1 145.8,321.9 171.7,282.6 "/>
<polygon fill="#EBE9EB" points="136.8,451.3 125,500 171.3,467.2 "/>
<polygon fill="#F4F2F4" points="125,500 169.9,498.6 171.3,467.2 "/>
<polygon fill="#CDCBCD" points="146.3,61.6 99.5,121.5 162.7,133.8 "/>
<polygon fill="#807E80" points="125,0 130.9,22.4 161.6,29.6 "/>
<polygon fill="#D5D3D5" points="98.8,77 99.5,121.5 146.3,61.6 "/>
<polygon fill="#EAE8EA" points="161.6,29.6 146.3,61.6 177.9,54.6 "/>
<polygon fill="#F4F2F4" points="161.6,29.6 177.9,54.6 181.4,25.7 "/>
<polygon fill="#F8F6F8" points="153.7,159.1 151.3,210.6 180.1,194.6 "/>
<polygon fill="#F9F7F9" points="178.7,159.1 153.7,159.1 180.1,194.6 "/>
<polygon fill="#EBE9EB" points="162.7,133.8 153.7,159.1 178.7,159.1 "/>
<polygon fill="#E1DFE1" points="160.8,426.1 136.8,451.3 171.3,467.2 "/>
<polygon fill="#F2F0F2" points="146.3,61.6 162.6,133.8 190.7,111.4 "/>
<polygon fill="#EAE8EA" points="146.3,61.6 190.7,111.4 194.3,94 "/>
<polygon fill="#E3E1E3" points="177.9,54.6 146.3,61.6 194.3,94 "/>
<polygon fill="#D6D4D6" points="181.4,25.7 177.9,54.6 197.6,30.9 "/>
<polygon fill="#EFEDEF" points="160.8,426.1 171.3,467.2 194.9,459.3 "/>
<polygon fill="#F1EFF1" points="178.7,159.1 180.1,194.6 203,185.8 "/>
<polygon fill="#B7B5B7" points="125,0 161.6,29.6 181.4,25.7 "/>
<polygon fill="#F5F3F5" points="194.3,94 190.7,111.4 207.9,109.4 "/>
<polygon fill="#FAF8FA" points="162.7,133.8 178.7,159.1 190.7,111.4 "/>
<polygon fill="#FBF9FB" points="130.3,331.2 127.6,414.7 160.8,426.1 "/>
<polygon fill="#FEFCFE" points="178.7,159.1 203,185.8 214.5,175.4 "/>
<polygon fill="#F7F5F7" points="130.3,331.2 160.8,426.1 214.1,387.9 "/>
<polygon fill="#ECEAEC" points="171.3,467.2 169.9,498.6 194.9,459.3 "/>
<polygon fill="#ECEAEC" points="145.8,321.9 130.3,331.2 214.1,387.9 "/>
<polygon fill="#DAD8DA" points="177.9,54.6 194.3,94 218.2,63.7 "/>
<polygon fill="#F1EFF1" points="178.7,159.1 214.4,175.4 219.6,140.9 "/>
<polygon fill="#F8F6F8" points="190.7,111.4 178.7,159.1 219.6,141 "/>
<polygon fill="#EBE9EB" points="207.9,109.4 190.7,111.4 219.6,141 "/>
<polygon fill="#D5D3D5" points="197.6,30.9 177.9,54.6 218.2,63.7 "/>
<polygon fill="#E2E0E2" points="154.6,272.1 171.7,282.6 217.6,266.9 "/>
<polygon fill="#D8D6D8" points="216.9,217.7 154.6,272.1 217.6,266.9 "/>
<polygon fill="#E0DEE0" points="203,185.8 180.1,194.6 216.9,217.7 "/>
<polygon fill="#D5D3D5" points="180.1,194.6 151.3,210.6 216.9,217.7 "/>
<polygon fill="#F0EEF0" points="151.3,210.6 154.6,272.1 216.9,217.7 "/>
<polygon fill="#DEDCDE" points="207.9,109.4 219.6,141 226.1,133.2 "/>
<polygon fill="#F7F5F7" points="145.7,321.9 214.1,387.9 229.4,346.5 "/>
<polygon fill="#FDFBFD" points="217.6,266.9 171.7,282.6 232.2,295.8 "/>
<polygon fill="#EEECEE" points="171.7,282.6 145.7,321.9 229.4,346.5 "/>
<polygon fill="#EEECEE" points="160.8,426.1 194.9,459.3 214.1,387.9 "/>
<polygon fill="#D4D2D4" points="214.1,387.9 194.9,459.3 237,426 "/>
<polygon fill="#DFDDDF" points="171.7,282.6 229.4,346.5 235.8,304.4 "/>
<polygon fill="#F0EEF0" points="232.2,295.8 171.7,282.6 235.8,304.4 "/>
<polygon fill="#D9D7D9" points="194.3,94 207.9,109.4 218.2,63.7 "/>
<polygon fill="#E9E7E9" points="237,426 194.9,459.3 242.8,436 "/>
<polygon fill="#F3F1F3" points="229.4,346.5 214.1,387.9 235.9,384.7 "/>
<polygon fill="#FAF8FA" points="214.5,175.4 203,185.8 216.9,217.7 "/>
<polygon fill="#E1DFE1" points="217.6,266.9 232.2,295.8 246.2,279.4 "/>
<polygon fill="#EDEBED" points="236,262.4 217.6,266.9 246.2,279.4 "/>
<polygon fill="#EAE8EA" points="214.4,175.4 216.9,217.7 240.1,178.4 "/>
<polygon fill="#D1CFD1" points="216.9,217.7 217.6,266.9 236,262.4 "/>
<polygon fill="#F4F2F4" points="194.9,459.3 169.9,498.6 250,500 "/>
<polygon fill="#D6D4D6" points="219.6,141 214.4,175.4 240.1,178.4 "/>
<polygon fill="#F4F2F4" points="235.9,384.7 214.1,387.9 237,426 "/>
<polygon fill="#CDCBCD" points="226.1,133.2 219.6,140.9 251.4,161 "/>
<polygon fill="#C3C1C3" points="219.6,141 240.1,178.4 251.4,161 "/>
<polygon fill="#F8F6F8" points="216.9,217.7 236,262.4 250,250 "/>
<polygon fill="#E9E7E9" points="181.4,25.7 197.6,30.9 250,0 "/>
<polygon fill="#EDEBED" points="235.8,304.4 229.4,346.5 249.1,310 "/>
<polygon fill="#E7E5E7" points="197.6,30.9 218.2,63.7 256,32.1 "/>
<polygon fill="#E6E4E6" points="250,0 197.6,30.9 256,32.1 "/>
<polygon fill="#FFFEFF" points="236,262.4 246.2,279.4 258.9,263 "/>
<polygon fill="#FDFBFD" points="250,250 236,262.5 258.9,263.1 "/>
<polygon fill="#F4F2F4" points="242.8,436 194.9,459.3 250,500 "/>
<polygon fill="#DBD9DB" points="246.2,279.4 235.8,304.4 249.1,310 "/>
<polygon fill="#DCDADC" points="232.2,295.8 235.8,304.4 246.2,279.4 "/>
<polygon fill="#FFFDFF" points="249.1,310 229.4,346.5 267.5,327.2 "/>
<polygon fill="#FDFBFD" points="242.8,436 250,500 270.7,463.5 "/>
<polygon fill="#F0EEF0" points="237,426 242.8,436 271.4,427.3 "/>
<polygon fill="#FAF8FA" points="249.1,310 267.5,327.2 272.7,313.3 "/>
<polygon fill="#D2D0D2" points="125,0 181.4,25.7 250,0 "/>
<polygon fill="#EDEBED" points="258.9,263.1 246.2,279.4 277.1,285 "/>
<polygon fill="#D7D5D7" points="251.4,161 240.1,178.4 274.2,190.4 "/>
<polygon fill="#D3D1D3" points="240.1,178.4 216.9,217.7 279,208.9 "/>
<polygon fill="#D1CFD1" points="274.2,190.4 240.1,178.4 279,208.8 "/>
<polygon fill="#E2E0E2" points="216.9,217.7 250,250 279,208.8 "/>
<polygon fill="#F2F0F2" points="246.2,279.4 249.1,310 277.1,285 "/>
<polygon fill="#DBD9DB" points="207.9,109.4 226.1,133.2 280.7,103.1 "/>
<polygon fill="#D4D2D4" points="249.1,310 272.7,313.3 277.1,285 "/>
<polygon fill="#C8C6C8" points="242.8,436 270.7,463.5 271.4,427.3 "/>
<polygon fill="#E3E1E3" points="218.2,63.7 280.7,103.1 281.9,99.1 "/>
<polygon fill="#CECCCE" points="218.2,63.7 207.9,109.4 280.7,103.1 "/>
<polygon fill="#D6D4D6" points="235.9,384.7 237,426 271.4,427.3 "/>
<polygon fill="#CFCDCF" points="226.1,133.2 251.4,161 284.4,146.5 "/>
<polygon fill="#F3F1F3" points="272.7,313.3 267.5,327.2 289.4,320.6 "/>
<polygon fill="#E0DEE0" points="250,250 258.9,263.1 289.8,240.9 "/>
<polygon fill="#E0DEE0" points="280.7,103.1 226.1,133.2 284.4,146.5 "/>
<polygon fill="#FEFCFE" points="250,0 256,32.1 291.2,20.9 "/>
<polygon fill="#F9F7F9" points="279,208.8 250,250 289.8,240.9 "/>
<polygon fill="#E3E1E3" points="256,32.1 218.2,63.7 281.9,99.1 "/>
<polygon fill="#F0EEF0" points="229.4,346.5 235.8,384.7 267.5,327.2 "/>
<polygon fill="#F5F3F5" points="258.9,263.1 277.1,285 295.4,267.3 "/>
<polygon fill="#FFFDFF" points="250,0 291.2,20.9 296.9,10.6 "/>
<polygon fill="#D7D5D7" points="251.4,161 274.2,190.4 284.5,146.5 "/>
<polygon fill="#F4F2F4" points="289.8,240.9 258.9,263.1 298,258.7 "/>
<polygon fill="#EEECEE" points="258.9,263 295.4,267.2 298,258.7 "/>
<polygon fill="#FCFAFC" points="270.7,463.5 250,500 291.8,470.7 "/>
<polygon fill="#F1EFF1" points="280.7,103.1 284.4,146.5 302.6,133.1 "/>
<polygon fill="#D3D1D3" points="277.1,285 272.7,313.3 289.4,320.6 "/>
<polygon fill="#F4F2F4" points="279,208.8 289.8,240.9 307.5,233.3 "/>
<polygon fill="#F5F3F5" points="281.9,99.1 280.7,103.1 311.5,106.6 "/>
<polygon fill="#E8E6E8" points="274.2,190.4 279,208.9 312.9,199 "/>
<polygon fill="#FAF8FA" points="279,208.8 307.5,233.3 312.9,199 "/>
<polygon fill="#EFEDEF" points="280.7,103.1 302.6,133.1 311.5,106.6 "/>
<polygon fill="#F3F1F3" points="289.8,240.9 298,258.7 307.5,233.3 "/>
<polygon fill="#F0EEF0" points="271.4,427.3 270.7,463.5 291.8,470.7 "/>
<polygon fill="#ECEAEC" points="291.2,20.9 281.9,99.1 322.4,49.5 "/>
<polygon fill="#E7E5E7" points="256,32.1 281.9,99.1 291.2,20.9 "/>
<polygon fill="#EAE8EA" points="284.5,146.5 274.2,190.4 312.9,199 "/>
<polygon fill="#CECCCE" points="289.3,320.6 267.5,327.2 329.2,363 "/>
<polygon fill="#EAE8EA" points="271.4,427.3 291.8,470.7 329.8,451.5 "/>
<polygon fill="#E1DFE1" points="291.8,470.7 324.5,476.5 329.8,451.5 "/>
<polygon fill="#EEECEE" points="267.5,327.2 235.9,384.7 329.2,363 "/>
<polygon fill="#FCFAFC" points="235.9,384.7 271.4,427.3 329.2,363 "/>
<polygon fill="#E9E7E9" points="302.6,133.1 284.5,146.5 334.5,156.1 "/>
<polygon fill="#EEECEE" points="277.1,285 289.3,320.6 295.4,267.2 "/>
<polygon fill="#E9E7E9" points="296.9,10.6 291.2,20.9 334.9,37.5 "/>
<polygon fill="#CFCDCF" points="291.2,20.9 322.4,49.5 334.9,37.5 "/>
<polygon fill="#D6D4D6" points="284.5,146.5 312.9,199 334.5,156.1 "/>
<polygon fill="#D7D5D7" points="322.4,49.5 311.5,106.6 329.1,103.9 "/>
<polygon fill="#F0EEF0" points="311.5,106.5 302.6,133.1 329.1,103.9 "/>
<polygon fill="#DCDADC" points="281.9,99.1 311.5,106.6 322.4,49.5 "/>
<polygon fill="#F4F2F4" points="329.1,103.9 349,114.6 350.9,94.2 "/>
<polygon fill="#E2E0E2" points="329.1,103.9 302.6,133.1 349,114.6 "/>
<polygon fill="#D0CED0" points="302.6,133.1 334.5,156.1 349,114.6 "/>
<polygon fill="#EAE8EA" points="291.8,470.7 250,500 324.5,476.5 "/>
<polygon fill="#C6C4C6" points="322.4,49.5 350.9,94.2 353.8,90.3 "/>
<polygon fill="#D9D7D9" points="322.4,49.5 329.1,103.9 350.9,94.2 "/>
<polygon fill="#EFEDEF" points="289.3,320.6 329.2,363 359.6,336.6 "/>
<polygon fill="#ECEAEC" points="329.2,363 271.4,427.3 329.8,451.5 "/>
<polygon fill="#F6F4F6" points="312.9,199 307.5,233.3 364.3,216.2 "/>
<polygon fill="#E3E1E3" points="334.9,37.5 322.4,49.5 369.6,72.6 "/>
<polygon fill="#EBE9EB" points="322.4,49.5 353.8,90.3 369.6,72.6 "/>
<polygon fill="#E3E1E3" points="329.2,363 356,374.3 359.6,336.6 "/>
<polygon fill="#F3F1F3" points="329.2,363 329.8,451.5 356,374.3 "/>
<polygon fill="#EDEBED" points="296.9,10.6 334.9,37.5 375,0 "/>
<polygon fill="#E9E7E9" points="334.5,156.1 312.9,199 376,188.1 "/>
<polygon fill="#E6E4E6" points="312.9,199 364.3,216.2 376,188.1 "/>
<polygon fill="#F9F7F9" points="295.4,267.2 289.3,320.6 359.6,336.5 "/>
<polygon fill="#FAF8FA" points="375,0 334.9,37.5 385.8,14.2 "/>
<polygon fill="#F6F4F6" points="349,114.6 334.5,156.1 390.4,150.6 "/>
<polygon fill="#E7E5E7" points="334.5,156.1 376,188.1 390.4,150.6 "/>
<polygon fill="#C8C6C8" points="298,258.7 295.4,267.2 387.4,307.6 "/>
<polygon fill="#E7E5E7" points="295.4,267.2 359.6,336.5 387.4,307.6 "/>
<polygon fill="#F2F0F2" points="329.8,451.5 324.5,476.5 375,500 "/>
<polygon fill="#F0EEF0" points="307.5,233.3 298,258.7 364.3,216.2 "/>
<polygon fill="#F7F5F7" points="350.9,94.2 349,114.6 353.8,90.3 "/>
<polygon fill="#EEECEE" points="387.4,307.6 359.6,336.6 399.1,332.5 "/>
<polygon fill="#DBD9DB" points="334.9,37.5 369.6,72.6 385.8,14.2 "/>
<polygon fill="#DBD9DB" points="364.3,216.2 298,258.7 399.9,260.4 "/>
<polygon fill="#F2F0F2" points="298,258.7 387.4,307.6 399.9,260.4 "/>
<polygon fill="#EAE8EA" points="359.6,336.6 356,374.3 399.1,332.5 "/>
<polygon fill="#F6F4F6" points="329.8,451.5 375,500 397.5,481.7 "/>
<polygon fill="#E3E1E3" points="324.5,476.6 250,500 375,500 "/>
<polygon fill="#D5D3D5" points="349,114.6 390.4,150.6 422.5,129.3 "/>
<polygon fill="#F6F4F6" points="369.6,72.6 422.5,129.3 424.1,127.8 "/>
<polygon fill="#F4F2F4" points="353.8,90.3 349,114.6 422.5,129.3 "/>
<polygon fill="#C6C4C6" points="369.6,72.6 353.8,90.3 422.5,129.3 "/>
<polygon fill="#CECCCE" points="369.6,72.6 424,127.8 439.3,97.2 "/>
<polygon fill="#E5E3E5" points="356,374.3 329.8,451.5 397.5,481.7 "/>
<polygon fill="#E4E2E4" points="369.6,72.6 439.3,97.2 439.8,79.9 "/>
<polygon fill="#F1EFF1" points="397.5,481.7 375,500 437.5,500 "/>
<polygon fill="#FEFCFE" points="375,0 385.8,14.2 437.5,0 "/>
<polygon fill="#E6E4E6" points="364.3,216.2 399.9,260.4 427.4,253 "/>
<polygon fill="#EBE9EB" points="439.8,79.9 439.3,97.2 443,93.1 "/>
<polygon fill="#BCBABC" points="439.3,97.2 424,127.8 444.1,114.3 "/>
<polygon fill="#BFBDBF" points="424,127.8 444.1,120.8 444.1,114.3 "/>
<polygon fill="#F3F1F3" points="376,188.1 364.3,216.2 427.4,253 "/>
<polygon fill="#F3F1F3" points="397.5,481.7 437.5,500 448.3,478.3 "/>
<polygon fill="#D1CFD1" points="385.8,14.2 369.6,72.6 439.8,79.9 "/>
<polygon fill="#D5D3D5" points="424.1,127.8 422.5,129.3 451.5,138.4 "/>
<polygon fill="#F0EEF0" points="443,93.1 439.3,97.2 451.6,100.8 "/>
<polygon fill="#DBD9DB" points="439.3,97.2 444.2,114.3 451.6,100.8 "/>
<polygon fill="#D9D7D9" points="444.1,120.8 424,127.8 451.5,138.4 "/>
<polygon fill="#DBD9DB" points="437.5,0 385.8,14.2 456.2,46.6 "/>
<polygon fill="#C8C6C8" points="385.8,14.2 439.8,79.9 456.2,46.6 "/>
<polygon fill="#E3E1E3" points="422.5,129.3 390.4,150.6 451.5,138.4 "/>
<polygon fill="#E8E6E8" points="399.9,260.4 387.4,307.6 427.4,253 "/>
<polygon fill="#E1DFE1" points="468.2,49.2 456.2,46.6 470.2,55.9 "/>
<polygon fill="#E2E0E2" points="448.3,478.3 437.5,500 472.2,500 "/>
<polygon fill="#D9D7D9" points="437.5,0 456.2,46.6 472.2,0 "/>
<polygon fill="#E7E5E7" points="456.2,46.6 439.8,79.9 470.2,55.9 "/>
<polygon fill="#FDFBFD" points="387.4,307.6 399.1,332.5 460.9,340.3 "/>
<polygon fill="#F9F7F9" points="427.4,253 387.4,307.6 460.9,340.3 "/>
<polygon fill="#DFDDDF" points="439.8,79.9 443,93.1 451.6,100.8 "/>
<polygon fill="#F1EFF1" points="390.4,150.6 376,188.1 451.5,138.4 "/>
<polygon fill="#F0EEF0" points="445.4,251.7 461,340.3 485,285.8 "/>
<polygon fill="#FCFAFC" points="445.4,251.7 427.4,253 461,340.3 "/>
<polygon fill="#EAE8EA" points="470.1,145.4 451.5,138.4 486.3,164.3 "/>
<polygon fill="#E0DEE0" points="439.8,79.9 451.6,100.8 470.2,55.9 "/>
<polygon fill="#D7D5D7" points="444.2,114.3 444.1,120.8 451.6,100.8 "/>
<polygon fill="#DAD8DA" points="376,188.1 427.4,253 445.4,251.7 "/>
<polygon fill="#DDDBDD" points="456.2,46.6 468.2,49.2 472.2,0 "/>
<polygon fill="#E3E1E3" points="444.1,120.8 451.5,138.4 470.1,145.4 "/>
<polygon fill="#E4E2E4" points="399.1,332.5 356,374.3 460.9,340.3 "/>
<polygon fill="#F0EEF0" points="376,188.1 445.4,251.7 451.5,138.4 "/>
<polygon fill="#FBF9FB" points="356,374.3 397.5,481.7 448.3,478.3 "/>
<polygon fill="#F2F0F2" points="250,0 296.9,10.6 375,0 "/>
<polygon fill="#D3D1D3" points="356,374.3 448.3,478.3 488,439.8 "/>
<polygon fill="#F0EEF0" points="451.5,138.4 445.4,251.7 486.3,164.3 "/>
<polygon fill="#DDDBDD" points="460.9,340.3 356,374.3 488,439.8 "/>
<polygon fill="#E5E3E5" points="451.6,100.8 444.1,120.8 470.1,145.4 "/>
<polygon fill="#D5D3D5" points="445.4,251.7 485,285.8 499.2,266.6 "/>
<polygon fill="#D4D2D4" points="472.2,0 468.2,49.2 495.8,11.8 "/>
<polygon fill="#EDEBED" points="169.9,498.6 125,500 250,500 "/>
<polygon fill="#F9F7F9" points="445.4,251.7 490.6,238.3 493.5,172.3 "/>
<polygon fill="#F6F4F6" points="486.3,164.3 445.4,251.7 493.5,172.3 "/>
<polygon fill="#D2D0D2" points="490.6,238.3 445.4,251.7 499.2,266.6 "/>
<polygon fill="#F2F0F2" points="460.9,340.3 488,439.8 500,375 "/>
<polygon fill="#F0EEF0" points="485,285.8 460.9,340.3 500,375 "/>
<polygon fill="#F4F2F4" points="499.2,266.6 485,285.8 500,375 "/>
<polygon fill="#F6F4F6" points="500,375 488,439.8 500,437.5 "/>
<polygon fill="#E6E4E6" points="490.6,238.3 499.2,266.6 500,250 "/>
<polygon fill="#DDDBDD" points="493.5,172.3 490.6,238.3 500,250 "/>
<polygon fill="#F0EEF0" points="499.2,266.6 500,375 500,250 "/>
<polygon fill="#EFEDEF" points="495.8,11.8 468.2,49.2 500,27.8 "/>
<polygon fill="#D7D5D7" points="451.6,100.8 470.1,145.4 500,125 "/>
<polygon fill="#F6F4F6" points="470.1,145.5 486.3,164.3 500,125 "/>
<polygon fill="#F1EFF1" points="486.3,164.3 493.5,172.3 500,125 "/>
<polygon fill="#CCCACC" points="493.5,172.3 500,250 500,125 "/>
<polygon fill="#C5C3C5" points="500,27.8 468.2,49.2 500,62.5 "/>
<polygon fill="#FFFEFF" points="468.2,49.2 470.2,55.9 500,62.5 "/>
<polygon fill="#DCDADC" points="451.6,100.8 500,125 500,62.5 "/>
<polygon fill="#D2D0D2" points="470.2,55.9 451.6,100.8 500,62.5 "/>
<polygon fill="#FDFBFD" points="488,439.8 448.3,478.3 500,472.2 "/>
<polygon fill="#FAF8FA" points="448.3,478.3 472.2,500 500,472.2 "/>
<polygon fill="#ECEAEC" points="472.2,500 500,500 500,472.2 "/>
<polygon fill="#F1EFF1" points="500,437.5 488,439.8 500,472.2 "/>
<polygon fill="#CBC9CB" points="472.2,0 495.8,11.8 500,0 "/>
<polygon fill="#D1CFD1" points="495.8,11.8 500,27.8 500,0 "/>
</svg>
